<mxfile host="app.diagrams.net" modified="2023-10-22T04:55:35.351Z" agent="Mozilla/5.0 (Windows NT 10.0; Win64; x64) AppleWebKit/537.36 (KHTML, like Gecko) Chrome/117.0.0.0 Safari/537.36" etag="4-foshqMFW4B1NJgQegq" version="22.0.6" type="device">
  <diagram name="Página-1" id="YDAhRehPK7HNQKi2IeO7">
    <mxGraphModel dx="1434" dy="758" grid="1" gridSize="10" guides="1" tooltips="1" connect="1" arrows="1" fold="1" page="1" pageScale="1" pageWidth="827" pageHeight="1169" math="0" shadow="0">
      <root>
        <mxCell id="0" />
        <mxCell id="1" parent="0" />
        <mxCell id="LUQZSI-SgKgGzaRY7Djh-49" value="" style="rounded=0;whiteSpace=wrap;html=1;" vertex="1" parent="1">
          <mxGeometry x="200" y="230" width="460" height="400" as="geometry" />
        </mxCell>
        <mxCell id="LUQZSI-SgKgGzaRY7Djh-24" value="" style="rounded=1;whiteSpace=wrap;html=1;fillColor=#9AC7BF;" vertex="1" parent="1">
          <mxGeometry x="200" y="50" width="460" height="150" as="geometry" />
        </mxCell>
        <mxCell id="LUQZSI-SgKgGzaRY7Djh-1" value="&lt;b&gt;HOMEBANCKING&lt;/b&gt;" style="text;strokeColor=none;align=center;fillColor=none;html=1;verticalAlign=middle;whiteSpace=wrap;rounded=0;" vertex="1" parent="1">
          <mxGeometry x="367" y="60" width="126" height="30" as="geometry" />
        </mxCell>
        <mxCell id="LUQZSI-SgKgGzaRY7Djh-3" value="" style="shape=hexagon;perimeter=hexagonPerimeter2;whiteSpace=wrap;html=1;fixedSize=1;" vertex="1" parent="1">
          <mxGeometry x="370" y="95" width="120" height="80" as="geometry" />
        </mxCell>
        <mxCell id="LUQZSI-SgKgGzaRY7Djh-4" value="" style="shape=hexagon;perimeter=hexagonPerimeter2;whiteSpace=wrap;html=1;fixedSize=1;" vertex="1" parent="1">
          <mxGeometry x="510" y="95" width="120" height="80" as="geometry" />
        </mxCell>
        <mxCell id="LUQZSI-SgKgGzaRY7Djh-5" value="" style="shape=hexagon;perimeter=hexagonPerimeter2;whiteSpace=wrap;html=1;fixedSize=1;" vertex="1" parent="1">
          <mxGeometry x="231" y="95" width="120" height="80" as="geometry" />
        </mxCell>
        <mxCell id="LUQZSI-SgKgGzaRY7Djh-6" value="Usuarios" style="text;strokeColor=none;align=center;fillColor=none;html=1;verticalAlign=middle;whiteSpace=wrap;rounded=0;" vertex="1" parent="1">
          <mxGeometry x="261" y="120" width="60" height="30" as="geometry" />
        </mxCell>
        <mxCell id="LUQZSI-SgKgGzaRY7Djh-7" value="Cuentas" style="text;strokeColor=none;align=center;fillColor=none;html=1;verticalAlign=middle;whiteSpace=wrap;rounded=0;" vertex="1" parent="1">
          <mxGeometry x="540" y="120" width="60" height="30" as="geometry" />
        </mxCell>
        <mxCell id="LUQZSI-SgKgGzaRY7Djh-8" value="Transferencias" style="text;strokeColor=none;align=center;fillColor=none;html=1;verticalAlign=middle;whiteSpace=wrap;rounded=0;" vertex="1" parent="1">
          <mxGeometry x="380" y="120" width="100" height="30" as="geometry" />
        </mxCell>
        <mxCell id="LUQZSI-SgKgGzaRY7Djh-9" value="&lt;ul&gt;&lt;li&gt;&lt;b&gt;Patrón N Layers.&lt;/b&gt;&lt;/li&gt;&lt;/ul&gt;" style="text;strokeColor=none;align=center;fillColor=none;html=1;verticalAlign=middle;whiteSpace=wrap;rounded=0;" vertex="1" parent="1">
          <mxGeometry x="679.5" y="265" width="140" height="30" as="geometry" />
        </mxCell>
        <mxCell id="LUQZSI-SgKgGzaRY7Djh-10" value="" style="ellipse;whiteSpace=wrap;html=1;" vertex="1" parent="1">
          <mxGeometry x="226" y="255" width="120" height="80" as="geometry" />
        </mxCell>
        <mxCell id="LUQZSI-SgKgGzaRY7Djh-11" value="" style="ellipse;whiteSpace=wrap;html=1;" vertex="1" parent="1">
          <mxGeometry x="491" y="460" width="120" height="80" as="geometry" />
        </mxCell>
        <mxCell id="LUQZSI-SgKgGzaRY7Djh-13" value="" style="shape=cylinder3;whiteSpace=wrap;html=1;boundedLbl=1;backgroundOutline=1;size=15;" vertex="1" parent="1">
          <mxGeometry x="384" y="680" width="60" height="80" as="geometry" />
        </mxCell>
        <mxCell id="LUQZSI-SgKgGzaRY7Djh-14" value="&lt;div style=&quot;text-align: left;&quot;&gt;&lt;span style=&quot;background-color: initial;&quot;&gt;&lt;u&gt;Capas:&lt;/u&gt;&lt;/span&gt;&lt;/div&gt;&lt;div style=&quot;text-align: left;&quot;&gt;&lt;ul&gt;&lt;li&gt;&lt;span style=&quot;background-color: initial;&quot;&gt;Presentación.&lt;/span&gt;&lt;/li&gt;&lt;li&gt;&lt;span style=&quot;background-color: initial;&quot;&gt;Negocio/Servicio.&lt;/span&gt;&lt;/li&gt;&lt;li&gt;&lt;span style=&quot;background-color: initial;&quot;&gt;Persistencia.&lt;/span&gt;&lt;/li&gt;&lt;/ul&gt;&lt;/div&gt;" style="text;strokeColor=none;align=center;fillColor=none;html=1;verticalAlign=middle;whiteSpace=wrap;rounded=0;" vertex="1" parent="1">
          <mxGeometry x="20" y="335" width="149" height="90" as="geometry" />
        </mxCell>
        <mxCell id="LUQZSI-SgKgGzaRY7Djh-15" value="BBDD" style="text;strokeColor=none;align=center;fillColor=none;html=1;verticalAlign=middle;whiteSpace=wrap;rounded=0;" vertex="1" parent="1">
          <mxGeometry x="384" y="720" width="60" height="30" as="geometry" />
        </mxCell>
        <mxCell id="LUQZSI-SgKgGzaRY7Djh-16" value="Controller" style="text;strokeColor=none;align=center;fillColor=none;html=1;verticalAlign=middle;whiteSpace=wrap;rounded=0;" vertex="1" parent="1">
          <mxGeometry x="256" y="280" width="60" height="30" as="geometry" />
        </mxCell>
        <mxCell id="LUQZSI-SgKgGzaRY7Djh-17" value="Models/Entities" style="text;strokeColor=none;align=center;fillColor=none;html=1;verticalAlign=middle;whiteSpace=wrap;rounded=0;" vertex="1" parent="1">
          <mxGeometry x="505" y="485" width="90" height="30" as="geometry" />
        </mxCell>
        <mxCell id="LUQZSI-SgKgGzaRY7Djh-18" value="" style="ellipse;whiteSpace=wrap;html=1;" vertex="1" parent="1">
          <mxGeometry x="331" y="350" width="120" height="80" as="geometry" />
        </mxCell>
        <mxCell id="LUQZSI-SgKgGzaRY7Djh-19" value="Services" style="text;strokeColor=none;align=center;fillColor=none;html=1;verticalAlign=middle;whiteSpace=wrap;rounded=0;" vertex="1" parent="1">
          <mxGeometry x="361" y="375" width="60" height="30" as="geometry" />
        </mxCell>
        <mxCell id="LUQZSI-SgKgGzaRY7Djh-20" value="" style="ellipse;whiteSpace=wrap;html=1;" vertex="1" parent="1">
          <mxGeometry x="331" y="495" width="120" height="80" as="geometry" />
        </mxCell>
        <mxCell id="LUQZSI-SgKgGzaRY7Djh-21" value="Repositories" style="text;strokeColor=none;align=center;fillColor=none;html=1;verticalAlign=middle;whiteSpace=wrap;rounded=0;" vertex="1" parent="1">
          <mxGeometry x="361" y="520" width="60" height="30" as="geometry" />
        </mxCell>
        <mxCell id="LUQZSI-SgKgGzaRY7Djh-22" value="" style="endArrow=classic;startArrow=classic;html=1;rounded=0;entryX=1;entryY=0.5;entryDx=0;entryDy=0;exitX=0.5;exitY=0;exitDx=0;exitDy=0;" edge="1" parent="1" source="LUQZSI-SgKgGzaRY7Djh-18" target="LUQZSI-SgKgGzaRY7Djh-10">
          <mxGeometry width="50" height="50" relative="1" as="geometry">
            <mxPoint x="406" y="405" as="sourcePoint" />
            <mxPoint x="456" y="355" as="targetPoint" />
            <Array as="points">
              <mxPoint x="390" y="295" />
            </Array>
          </mxGeometry>
        </mxCell>
        <mxCell id="LUQZSI-SgKgGzaRY7Djh-23" value="" style="endArrow=classic;startArrow=classic;html=1;rounded=0;exitX=0.5;exitY=0;exitDx=0;exitDy=0;entryX=0.5;entryY=1;entryDx=0;entryDy=0;" edge="1" parent="1" source="LUQZSI-SgKgGzaRY7Djh-20" target="LUQZSI-SgKgGzaRY7Djh-18">
          <mxGeometry width="50" height="50" relative="1" as="geometry">
            <mxPoint x="406" y="405" as="sourcePoint" />
            <mxPoint x="456" y="355" as="targetPoint" />
          </mxGeometry>
        </mxCell>
        <mxCell id="LUQZSI-SgKgGzaRY7Djh-26" value="&lt;div style=&quot;text-align: left;&quot;&gt;&lt;b style=&quot;background-color: initial;&quot;&gt;D&lt;/b&gt;&lt;span style=&quot;background-color: initial;&quot;&gt;ata&lt;/span&gt;&lt;/div&gt;&lt;b&gt;&lt;div style=&quot;text-align: left;&quot;&gt;&lt;b style=&quot;background-color: initial;&quot;&gt;T&lt;/b&gt;&lt;span style=&quot;background-color: initial; font-weight: normal;&quot;&gt;ransfer&lt;/span&gt;&lt;/div&gt;&lt;/b&gt;&lt;b&gt;&lt;div style=&quot;text-align: left;&quot;&gt;&lt;b style=&quot;background-color: initial;&quot;&gt;O&lt;/b&gt;&lt;span style=&quot;background-color: initial; font-weight: normal;&quot;&gt;bject&lt;/span&gt;&lt;/div&gt;&lt;/b&gt;" style="text;strokeColor=none;align=center;fillColor=none;html=1;verticalAlign=middle;whiteSpace=wrap;rounded=0;" vertex="1" parent="1">
          <mxGeometry x="710" y="325" width="80" height="80" as="geometry" />
        </mxCell>
        <mxCell id="LUQZSI-SgKgGzaRY7Djh-27" value="" style="ellipse;whiteSpace=wrap;html=1;" vertex="1" parent="1">
          <mxGeometry x="490" y="240" width="120" height="80" as="geometry" />
        </mxCell>
        <mxCell id="LUQZSI-SgKgGzaRY7Djh-28" value="DTO" style="text;strokeColor=none;align=center;fillColor=none;html=1;verticalAlign=middle;whiteSpace=wrap;rounded=0;" vertex="1" parent="1">
          <mxGeometry x="520" y="265" width="60" height="30" as="geometry" />
        </mxCell>
        <mxCell id="LUQZSI-SgKgGzaRY7Djh-29" value="" style="shape=hexagon;perimeter=hexagonPerimeter2;whiteSpace=wrap;html=1;fixedSize=1;" vertex="1" parent="1">
          <mxGeometry x="491" y="350" width="120" height="80" as="geometry" />
        </mxCell>
        <mxCell id="LUQZSI-SgKgGzaRY7Djh-30" value="" style="endArrow=classic;startArrow=classic;html=1;rounded=0;entryX=0.5;entryY=1;entryDx=0;entryDy=0;exitX=0.5;exitY=0;exitDx=0;exitDy=0;" edge="1" parent="1" source="LUQZSI-SgKgGzaRY7Djh-29" target="LUQZSI-SgKgGzaRY7Djh-27">
          <mxGeometry width="50" height="50" relative="1" as="geometry">
            <mxPoint x="390" y="360" as="sourcePoint" />
            <mxPoint x="440" y="310" as="targetPoint" />
          </mxGeometry>
        </mxCell>
        <mxCell id="LUQZSI-SgKgGzaRY7Djh-31" value="" style="endArrow=classic;startArrow=classic;html=1;rounded=0;entryX=0.5;entryY=1;entryDx=0;entryDy=0;exitX=0.5;exitY=0;exitDx=0;exitDy=0;" edge="1" parent="1" source="LUQZSI-SgKgGzaRY7Djh-11" target="LUQZSI-SgKgGzaRY7Djh-29">
          <mxGeometry width="50" height="50" relative="1" as="geometry">
            <mxPoint x="390" y="360" as="sourcePoint" />
            <mxPoint x="440" y="310" as="targetPoint" />
          </mxGeometry>
        </mxCell>
        <mxCell id="LUQZSI-SgKgGzaRY7Djh-32" value="Mapper" style="text;strokeColor=none;align=center;fillColor=none;html=1;verticalAlign=middle;whiteSpace=wrap;rounded=0;" vertex="1" parent="1">
          <mxGeometry x="521" y="375" width="60" height="30" as="geometry" />
        </mxCell>
        <mxCell id="LUQZSI-SgKgGzaRY7Djh-33" value="" style="endArrow=none;html=1;rounded=0;entryX=0.587;entryY=0.12;entryDx=0;entryDy=0;entryPerimeter=0;" edge="1" parent="1">
          <mxGeometry width="50" height="50" relative="1" as="geometry">
            <mxPoint x="470" y="500" as="sourcePoint" />
            <mxPoint x="470.02" y="279.79999999999995" as="targetPoint" />
            <Array as="points">
              <mxPoint x="470" y="390" />
            </Array>
          </mxGeometry>
        </mxCell>
        <mxCell id="LUQZSI-SgKgGzaRY7Djh-34" value="" style="endArrow=none;html=1;rounded=0;entryX=0;entryY=0.5;entryDx=0;entryDy=0;" edge="1" parent="1" target="LUQZSI-SgKgGzaRY7Djh-29">
          <mxGeometry width="50" height="50" relative="1" as="geometry">
            <mxPoint x="470" y="390" as="sourcePoint" />
            <mxPoint x="440" y="310" as="targetPoint" />
          </mxGeometry>
        </mxCell>
        <mxCell id="LUQZSI-SgKgGzaRY7Djh-35" value="" style="endArrow=none;html=1;rounded=0;exitX=1;exitY=0.5;exitDx=0;exitDy=0;" edge="1" parent="1" source="LUQZSI-SgKgGzaRY7Djh-18">
          <mxGeometry width="50" height="50" relative="1" as="geometry">
            <mxPoint x="390" y="360" as="sourcePoint" />
            <mxPoint x="470" y="390" as="targetPoint" />
          </mxGeometry>
        </mxCell>
        <mxCell id="LUQZSI-SgKgGzaRY7Djh-36" value="" style="endArrow=none;html=1;rounded=0;entryX=0;entryY=0.5;entryDx=0;entryDy=0;" edge="1" parent="1" target="LUQZSI-SgKgGzaRY7Djh-27">
          <mxGeometry width="50" height="50" relative="1" as="geometry">
            <mxPoint x="470" y="280" as="sourcePoint" />
            <mxPoint x="440" y="310" as="targetPoint" />
          </mxGeometry>
        </mxCell>
        <mxCell id="LUQZSI-SgKgGzaRY7Djh-37" value="" style="endArrow=none;html=1;rounded=0;entryX=0;entryY=0.5;entryDx=0;entryDy=0;" edge="1" parent="1" target="LUQZSI-SgKgGzaRY7Djh-11">
          <mxGeometry width="50" height="50" relative="1" as="geometry">
            <mxPoint x="470" y="500" as="sourcePoint" />
            <mxPoint x="440" y="310" as="targetPoint" />
          </mxGeometry>
        </mxCell>
        <mxCell id="LUQZSI-SgKgGzaRY7Djh-38" value="" style="endArrow=classic;startArrow=classic;html=1;rounded=0;exitX=0.5;exitY=1;exitDx=0;exitDy=0;entryX=0.5;entryY=0;entryDx=0;entryDy=0;entryPerimeter=0;" edge="1" parent="1" source="LUQZSI-SgKgGzaRY7Djh-20" target="LUQZSI-SgKgGzaRY7Djh-13">
          <mxGeometry width="50" height="50" relative="1" as="geometry">
            <mxPoint x="390" y="560" as="sourcePoint" />
            <mxPoint x="410" y="700" as="targetPoint" />
            <Array as="points">
              <mxPoint x="390" y="610" />
              <mxPoint x="414" y="610" />
            </Array>
          </mxGeometry>
        </mxCell>
        <mxCell id="LUQZSI-SgKgGzaRY7Djh-40" value="&lt;ul&gt;&lt;li&gt;&lt;b&gt;Monolitico.&lt;/b&gt;&lt;/li&gt;&lt;/ul&gt;" style="text;strokeColor=none;align=left;fillColor=none;html=1;verticalAlign=middle;whiteSpace=wrap;rounded=0;" vertex="1" parent="1">
          <mxGeometry x="680" y="295" width="120" height="25" as="geometry" />
        </mxCell>
        <mxCell id="LUQZSI-SgKgGzaRY7Djh-44" value="" style="endArrow=classic;html=1;rounded=0;entryX=0;entryY=0.5;entryDx=0;entryDy=0;exitX=1.027;exitY=0.611;exitDx=0;exitDy=0;exitPerimeter=0;" edge="1" parent="1" source="LUQZSI-SgKgGzaRY7Djh-14" target="LUQZSI-SgKgGzaRY7Djh-18">
          <mxGeometry width="50" height="50" relative="1" as="geometry">
            <mxPoint x="390" y="550" as="sourcePoint" />
            <mxPoint x="440" y="500" as="targetPoint" />
          </mxGeometry>
        </mxCell>
        <mxCell id="LUQZSI-SgKgGzaRY7Djh-45" value="" style="endArrow=classic;html=1;rounded=0;exitX=1.02;exitY=0.833;exitDx=0;exitDy=0;exitPerimeter=0;" edge="1" parent="1" source="LUQZSI-SgKgGzaRY7Djh-14">
          <mxGeometry width="50" height="50" relative="1" as="geometry">
            <mxPoint x="390" y="550" as="sourcePoint" />
            <mxPoint x="330" y="530" as="targetPoint" />
            <Array as="points">
              <mxPoint x="280" y="530" />
            </Array>
          </mxGeometry>
        </mxCell>
        <mxCell id="LUQZSI-SgKgGzaRY7Djh-46" value="&lt;b&gt;JPA &lt;/b&gt;&lt;br&gt;&lt;div style=&quot;text-align: left;&quot;&gt;&lt;span style=&quot;background-color: initial;&quot;&gt;&lt;b&gt;J&lt;/b&gt;ava&lt;/span&gt;&lt;/div&gt;&lt;div style=&quot;text-align: left;&quot;&gt;&lt;span style=&quot;background-color: initial;&quot;&gt;&lt;b&gt;P&lt;/b&gt;erssistent&lt;/span&gt;&lt;/div&gt;&lt;div style=&quot;text-align: left;&quot;&gt;&lt;span style=&quot;background-color: initial;&quot;&gt;&lt;b&gt;A&lt;/b&gt;pp&lt;/span&gt;&lt;/div&gt;" style="text;strokeColor=none;align=center;fillColor=none;html=1;verticalAlign=middle;whiteSpace=wrap;rounded=0;" vertex="1" parent="1">
          <mxGeometry x="710" y="390" width="80" height="90" as="geometry" />
        </mxCell>
        <mxCell id="LUQZSI-SgKgGzaRY7Djh-47" value="ORM -&amp;gt; Hibernate (Framework)" style="text;strokeColor=none;align=center;fillColor=none;html=1;verticalAlign=middle;whiteSpace=wrap;rounded=0;" vertex="1" parent="1">
          <mxGeometry x="695.5" y="485" width="109" height="40" as="geometry" />
        </mxCell>
        <mxCell id="LUQZSI-SgKgGzaRY7Djh-48" value="" style="endArrow=classic;html=1;rounded=0;entryX=1.02;entryY=0.422;entryDx=0;entryDy=0;entryPerimeter=0;exitX=0;exitY=0.5;exitDx=0;exitDy=0;" edge="1" parent="1" source="LUQZSI-SgKgGzaRY7Djh-10" target="LUQZSI-SgKgGzaRY7Djh-14">
          <mxGeometry width="50" height="50" relative="1" as="geometry">
            <mxPoint x="390" y="550" as="sourcePoint" />
            <mxPoint x="440" y="500" as="targetPoint" />
            <Array as="points">
              <mxPoint x="190" y="295" />
            </Array>
          </mxGeometry>
        </mxCell>
        <mxCell id="LUQZSI-SgKgGzaRY7Djh-50" value="" style="shape=flexArrow;endArrow=classic;html=1;rounded=0;strokeColor=#000000;fillColor=#E6E6E6;" edge="1" parent="1">
          <mxGeometry width="50" height="50" relative="1" as="geometry">
            <mxPoint x="230" y="540" as="sourcePoint" />
            <mxPoint x="60" y="540" as="targetPoint" />
          </mxGeometry>
        </mxCell>
        <mxCell id="LUQZSI-SgKgGzaRY7Djh-51" value="" style="shape=flexArrow;endArrow=classic;html=1;rounded=0;entryX=0.065;entryY=0.925;entryDx=0;entryDy=0;entryPerimeter=0;fillColor=#E6E6E6;" edge="1" parent="1" target="LUQZSI-SgKgGzaRY7Djh-49">
          <mxGeometry width="50" height="50" relative="1" as="geometry">
            <mxPoint x="60" y="600" as="sourcePoint" />
            <mxPoint x="440" y="500" as="targetPoint" />
          </mxGeometry>
        </mxCell>
        <mxCell id="LUQZSI-SgKgGzaRY7Djh-52" value="Resquest" style="text;strokeColor=none;align=center;fillColor=none;html=1;verticalAlign=middle;whiteSpace=wrap;rounded=0;" vertex="1" parent="1">
          <mxGeometry x="100" y="510" width="60" height="30" as="geometry" />
        </mxCell>
        <mxCell id="LUQZSI-SgKgGzaRY7Djh-53" value="Response" style="text;strokeColor=none;align=center;fillColor=none;html=1;verticalAlign=middle;whiteSpace=wrap;rounded=0;" vertex="1" parent="1">
          <mxGeometry x="100" y="570" width="60" height="30" as="geometry" />
        </mxCell>
        <mxCell id="LUQZSI-SgKgGzaRY7Djh-54" value="Data()&lt;br&gt;HTTP STATE CODE" style="text;strokeColor=none;align=center;fillColor=none;html=1;verticalAlign=middle;whiteSpace=wrap;rounded=0;" vertex="1" parent="1">
          <mxGeometry x="65" y="620" width="130" height="30" as="geometry" />
        </mxCell>
        <mxCell id="LUQZSI-SgKgGzaRY7Djh-57" value="" style="swimlane;startSize=0;strokeColor=default;align=center;verticalAlign=middle;fontFamily=Helvetica;fontSize=12;fontColor=default;fillColor=default;html=1;" vertex="1" collapsed="1" parent="1">
          <mxGeometry x="687.75" y="340" width="124.5" height="190" as="geometry">
            <mxRectangle x="695.5" y="330" width="200" height="200" as="alternateBounds" />
          </mxGeometry>
        </mxCell>
        <mxCell id="LUQZSI-SgKgGzaRY7Djh-58" value="Methods" style="swimlane;whiteSpace=wrap;html=1;strokeColor=default;align=center;verticalAlign=middle;fontFamily=Helvetica;fontSize=12;fontColor=default;fillColor=default;" vertex="1" parent="1">
          <mxGeometry x="694.5" y="550" width="110" height="200" as="geometry" />
        </mxCell>
        <mxCell id="LUQZSI-SgKgGzaRY7Djh-59" value="&lt;ul&gt;&lt;li&gt;Create&lt;/li&gt;&lt;li&gt;Read&lt;/li&gt;&lt;li&gt;Update&lt;/li&gt;&lt;li&gt;Delete&lt;/li&gt;&lt;/ul&gt;" style="text;strokeColor=none;align=left;fillColor=none;html=1;verticalAlign=middle;whiteSpace=wrap;rounded=0;fontSize=12;fontFamily=Helvetica;fontColor=default;" vertex="1" parent="LUQZSI-SgKgGzaRY7Djh-58">
          <mxGeometry x="10" y="20" width="90" height="80" as="geometry" />
        </mxCell>
        <mxCell id="LUQZSI-SgKgGzaRY7Djh-60" value="/GET&lt;br&gt;/POST&lt;br&gt;/PUT&lt;br&gt;/PATCH&lt;br&gt;/DELETE" style="text;strokeColor=none;align=center;fillColor=none;html=1;verticalAlign=middle;whiteSpace=wrap;rounded=0;fontSize=12;fontFamily=Helvetica;fontColor=default;" vertex="1" parent="LUQZSI-SgKgGzaRY7Djh-58">
          <mxGeometry x="27.5" y="110" width="55" height="80" as="geometry" />
        </mxCell>
        <mxCell id="LUQZSI-SgKgGzaRY7Djh-62" value="" style="endArrow=none;dashed=1;html=1;dashPattern=1 3;strokeWidth=2;rounded=0;fontFamily=Helvetica;fontSize=12;fontColor=default;entryX=1;entryY=0.5;entryDx=0;entryDy=0;exitX=0;exitY=0.5;exitDx=0;exitDy=0;" edge="1" parent="1" source="LUQZSI-SgKgGzaRY7Djh-58" target="LUQZSI-SgKgGzaRY7Djh-58">
          <mxGeometry width="50" height="50" relative="1" as="geometry">
            <mxPoint x="524.5" y="410" as="sourcePoint" />
            <mxPoint x="574.5" y="360" as="targetPoint" />
          </mxGeometry>
        </mxCell>
      </root>
    </mxGraphModel>
  </diagram>
</mxfile>
